Coordinates
version=1
nRows=8
nColumns=42
inDegrees=yes

Units are S.I. units (second, meters, Newtons, ...)
If the header above contains a line with 'inDegrees', this indicates whether rotational values are in degrees (yes) or radians (no).

endheader
time	pelvis_tilt	pelvis_list	pelvis_rotation	pelvis_tx	pelvis_ty	pelvis_tz	hip_flexion_r	hip_adduction_r	hip_rotation_r	knee_angle_r	knee_adduction_r	knee_angle_r_beta	ankle_angle_r	subtalar_angle_r	mtp_angle_r	hip_flexion_l	hip_adduction_l	hip_rotation_l	knee_angle_l	knee_adduction_l	knee_angle_l_beta	ankle_angle_l	subtalar_angle_l	mtp_angle_l	lumbar_extension	lumbar_bending	lumbar_rotation	arm_flex_r	arm_add_r	arm_rot_r	elbow_flex_r	pro_sup_r	wrist_flex_r	wrist_dev_r	arm_flex_l	arm_add_l	arm_rot_l	elbow_flex_l	pro_sup_l	wrist_flex_l	wrist_dev_l
      2.43000000	      9.32638073	      3.34825292	     -2.51824447	      1.65719888	      0.85876196	     -0.17495413	     16.33495826	     -5.96342336	      1.58032247	     16.42292893	     -2.52940236	      0.28663418	     14.14711543	     10.17927918	     -7.50018907	    -29.34343070	      4.56748111	    -16.04237357	      6.00398330	      6.04329685	      0.10478928	     19.40721837	     16.76799740	     -7.50018907	    -20.18728823	     -5.33542549	     -4.78322654	     -7.03701820	     -2.01228040	    -29.39887238	     32.13683466	     90.00000001	      0.00000000	      0.00000000	      1.73118036	     -6.86841972	     -5.30601981	     48.54981305	     90.00000001	      0.00000000	      0.00000000
      2.44000000	      9.09589730	      3.51377534	     -2.51298738	      1.66969758	      0.85697362	     -0.17341354	     16.84805891	     -5.82145645	      2.18120971	     16.65323848	     -2.68345146	      0.29065384	     14.17284623	     10.25145303	     -7.50018651	    -29.41672881	      4.51499180	    -15.87534802	      7.12808935	      5.77550235	      0.12440863	     19.40719723	     16.70216770	     -7.50018651	    -19.77517334	     -5.51207849	     -4.78152987	     -6.99665442	     -1.97631768	    -29.51113223	     31.74494290	     90.00000001	      0.00000000	      0.00000000	      1.96924517	     -6.80456298	     -5.32063135	     48.12800598	     90.00000001	      0.00000000	      0.00000000
      2.45000000	      8.82454629	      3.50610371	     -2.46397967	      1.68264868	      0.85521655	     -0.17189209	     17.34027626	     -5.55276530	      2.56121099	     17.34233432	     -2.64968476	      0.30268083	     14.18413745	      9.97736282	     -7.50018414	    -29.47909182	      4.30279608	    -15.73954541	      8.20489601	      5.43501379	      0.14320245	     19.26118569	     16.65380158	     -7.50018414	    -19.28796327	     -5.48144758	     -4.77624931	     -7.02554865	     -1.94911815	    -29.65208957	     31.52651897	     90.00000001	      0.00000000	      0.00000000	      2.03043252	     -6.69344007	     -5.35782628	     47.84085682	     90.00000001	      0.00000000	      0.00000000
      2.46000000	      8.56376404	      3.38981443	     -2.44341384	      1.69588480	      0.85352570	     -0.17017896	     17.87600555	     -5.12621356	      2.62544117	     18.65633481	     -2.62917690	      0.32561447	     14.19641666	      9.21058871	     -7.50018081	    -29.50221856	      3.92741980	    -15.91963859	      9.45660672	      5.15106074	      0.16504892	     18.99619757	     16.57712107	     -7.50018081	    -18.78326683	     -5.35786812	     -4.69359156	     -7.06927834	     -1.94764255	    -29.89105022	     31.32091556	     90.00000001	      0.00000000	      0.00000000	      2.06143248	     -6.56384982	     -5.47260065	     47.47177059	     90.00000001	      0.00000000	      0.00000000
      2.47000000	      8.30824277	      3.15539604	     -2.39224464	      1.70930050	      0.85202746	     -0.16834776	     18.29808155	     -4.56441220	      2.62566584	     20.14712651	     -2.62841220	      0.35163369	     14.06054807	      8.57786180	     -7.50017732	    -29.53268350	      3.43900983	    -16.07899564	     10.66936557	      4.81626992	      0.18621556	     18.59039511	     16.61301045	     -7.50017732	    -18.29386202	     -5.10512696	     -4.64706011	     -7.10552341	     -1.88839338	    -30.09449579	     31.27041339	     90.00000001	      0.00000000	      0.00000000	      1.99385035	     -6.44632823	     -5.60879207	     47.18835644	     90.00000001	      0.00000000	      0.00000000
      2.48000000	      8.08220102	      2.84761192	     -2.33577274	      1.72284552	      0.85071312	     -0.16646174	     18.62894774	     -3.91380116	      2.53683261	     21.80057476	     -2.70327432	      0.38049181	     13.83143118	      8.17196685	     -7.50017374	    -29.55297399	      2.87734762	    -16.32603251	     11.94630585	      4.44499126	      0.20850237	     17.98905539	     16.64519121	     -7.50017374	    -17.84507051	     -4.77184694	     -4.59966604	     -7.14794836	     -1.87805508	    -30.23099762	     31.28835678	     90.00000001	      0.00000000	      0.00000000	      1.87448403	     -6.32919579	     -5.76207885	     46.91411991	     90.00000001	      0.00000000	      0.00000000
      2.49000000	      7.88797050	      2.48536010	     -2.28229303	      1.73655204	      0.84964854	     -0.16452523	     18.86887418	     -3.20492117	      2.38667399	     23.54462420	     -2.86042386	      0.41093121	     13.51574695	      8.05511773	     -7.50017030	    -29.56727183	      2.26424466	    -16.64553020	     13.28414613	      4.04601855	      0.23185209	     17.17299081	     16.62564393	     -7.50017030	    -17.44250215	     -4.38169194	     -4.54986205	     -7.18112023	     -1.86898952	    -30.28064000	     31.35438162	     90.00000001	      0.00000000	      0.00000000	      1.69658899	     -6.21386220	     -5.93585320	     46.64236961	     90.00000001	      0.00000000	      0.00000000
      2.50000000	      7.76642048	      1.86482602	     -2.19408819	      1.75040214	      0.84889513	     -0.16236132	     19.01119710	     -2.21365142	      1.77258163	     25.39364678	     -3.24882699	      0.44320275	     13.19247013	      8.64808170	     -7.50016356	    -29.57289503	      1.31459353	    -17.23796439	     14.80798970	      3.67441528	      0.25844818	     16.34963101	     17.02253827	     -7.50016356	    -17.13874794	     -3.73268056	     -4.45551287	     -7.25055588	     -1.87275503	    -30.24760304	     31.50768695	     90.00000001	      0.00000000	      0.00000000	      1.49866020	     -6.06368806	     -6.27312019	     46.39064403	     90.00000001	      0.00000000	      0.00000000
